<svg width="172" height="43" viewBox="0 0 172 43" fill="none" xmlns="http://www.w3.org/2000/svg">
<g filter="url(#filter0_d_44_6)">
<path d="M4.17389 23.3943L15.8335 18.3411L22.5445 22.1308L23.9002 34.564L15.6301 34.4979L16.8503 25.8539L15.4267 25.0561L8.4445 30.3753L4.17389 23.3943Z" fill="#81818B"/>
<path d="M23.2906 21.5985L33.5945 28.9783L37.6616 21.8645L29.3913 18.6066V17.0109L37.6616 13.6866L33.5945 6.63892L23.2906 14.019V21.5985Z" fill="#81818B"/>
<path d="M22.5445 13.4209L23.9002 0.987793L15.6301 1.12078L16.8503 9.76406L15.4267 10.5619L8.37672 5.24297L4.17389 12.1576L15.8335 17.2107L22.5445 13.4209Z" fill="#81818B"/>
<path d="M65.2524 16.2858V27.934H69.7034V13.0895H63.2217V16.2858H65.2524Z" fill="#81818B"/>
<path d="M65.1133 11.0038C65.5213 11.4191 66.1429 11.6267 66.9771 11.6267C67.8124 11.6267 68.424 11.4191 68.813 11.0038C69.2215 10.5702 69.4252 10.0284 69.4252 9.37848C69.4252 8.71021 69.2215 8.16846 68.813 7.75319C68.424 7.3198 67.8124 7.10303 66.9771 7.10303C66.1429 7.10303 65.5213 7.3198 65.1133 7.75319C64.7243 8.16846 64.5295 8.71021 64.5295 9.37848C64.5295 10.0284 64.7243 10.5702 65.1133 11.0038Z" fill="#81818B"/>
<path d="M49.7576 27.6087C51.0186 28.1685 52.5669 28.4486 54.4028 28.4486C56.128 28.4486 57.6111 28.1864 58.8543 27.6629C60.097 27.1393 61.0519 26.4078 61.7192 25.4686C62.4059 24.5115 62.7487 23.401 62.7487 22.1368C62.7487 20.9089 62.4248 19.8705 61.7754 19.0216C61.1443 18.1549 60.2639 17.4777 59.1325 16.9902C58.0012 16.4844 56.6934 16.1684 55.2097 16.0422L53.6521 15.9067C52.7249 15.8343 52.0571 15.5907 51.6492 15.1752C51.2407 14.7599 51.037 14.2722 51.037 13.7126C51.037 13.279 51.1489 12.8818 51.3704 12.5206C51.5935 12.1414 51.9269 11.8434 52.3721 11.6266C52.8362 11.4101 53.4016 11.3017 54.0694 11.3017C54.774 11.3017 55.3583 11.4279 55.8219 11.6809C55.9237 11.7344 56.0209 11.7915 56.1117 11.8521L56.1337 11.8672C56.1678 11.8901 56.2015 11.9139 56.234 11.9379C56.5159 12.1474 56.7401 12.3959 56.9071 12.6832C57.1475 13.0805 57.2688 13.5228 57.2688 14.0105H61.7192C61.7192 12.7101 61.4131 11.5815 60.8015 10.6245C60.1899 9.64928 59.3089 8.8999 58.1592 8.376C57.0273 7.83425 55.6644 7.56335 54.0694 7.56335C52.5485 7.56335 51.2318 7.81635 50.1188 8.32193C49.0063 8.8096 48.1348 9.51383 47.5043 10.4347C46.8916 11.3557 46.5856 12.4484 46.5856 13.7126C46.5856 15.4642 47.1888 16.8727 48.3942 17.9383C49.5996 19.0037 51.2134 19.6177 53.2347 19.7802L54.7651 19.9157C56.0072 20.0241 56.9071 20.2679 57.4636 20.6469C58.0195 21.0081 58.2978 21.5047 58.2978 22.1368C58.2978 22.4273 58.249 22.6997 58.1513 22.9543C58.0789 23.1433 57.9791 23.3222 57.8531 23.4913C57.5554 23.8703 57.1202 24.1683 56.5453 24.3854C55.9704 24.6019 55.2565 24.7102 54.4028 24.7102C53.4573 24.7102 52.6876 24.584 52.0944 24.3308C51.5006 24.0601 51.0559 23.7079 50.7583 23.2748C50.4805 22.8411 50.3419 22.3717 50.3419 21.8659H45.9183C45.9183 23.1481 46.2427 24.286 46.8916 25.2789C47.5411 26.2543 48.496 27.0311 49.7576 27.6087Z" fill="#81818B"/>
<path d="M79.6348 28.1233C78.095 28.1233 76.8528 27.943 75.9068 27.5815C74.9607 27.2025 74.2656 26.5792 73.8204 25.7125C73.3941 24.8275 73.1805 23.6359 73.1805 22.1368V16.2587H70.8715V13.0895H73.1805V9.08057H77.3253V13.0895H81.7768V16.2587H77.3253V22.2996C77.3253 23.0038 77.5112 23.5455 77.8818 23.9245C78.2714 24.286 78.8184 24.4664 79.5235 24.4664H81.7768V28.1233H79.6348Z" fill="#81818B"/>
<path fill-rule="evenodd" clip-rule="evenodd" d="M87.136 27.7984C88.1372 28.2316 89.2875 28.4486 90.5853 28.4486C91.8647 28.4486 92.9966 28.2316 93.9794 27.7984C94.9622 27.3648 95.7786 26.7599 96.4275 25.9836C97.0764 25.2068 97.5127 24.3218 97.7347 23.3289H93.6455C93.4602 23.7804 93.1079 24.1594 92.5887 24.4663C92.0695 24.7733 91.4011 24.9272 90.5853 24.9272C90.0797 24.9272 89.6282 24.8686 89.2303 24.7522C88.9273 24.6637 88.6559 24.5415 88.4155 24.3854C87.859 24.0243 87.451 23.5182 87.1912 22.8683C87.1192 22.6832 87.0578 22.4895 87.0058 22.2878C86.9528 22.0834 86.9103 21.8708 86.8783 21.6494H98.013V20.1865C98.013 18.8321 97.7164 17.5861 97.1231 16.4485C96.5293 15.2925 95.6668 14.3625 94.5359 13.6583C93.4229 12.9359 92.0506 12.5747 90.4183 12.5747C89.1757 12.5747 88.0627 12.7915 87.0799 13.2249C86.116 13.6402 85.309 14.209 84.6601 14.9314C84.0112 15.6537 83.5104 16.4756 83.1571 17.3966C82.8237 18.2993 82.6567 19.2474 82.6567 20.2407V20.7824C82.6567 21.7397 82.8237 22.6786 83.1571 23.5997C83.5104 24.5026 84.0112 25.3241 84.6601 26.0646C85.3274 26.7872 86.1522 27.3648 87.136 27.7984ZM86.9549 18.9708C86.967 18.9135 86.9801 18.857 86.9943 18.8014C87.0331 18.6483 87.0772 18.5015 87.1282 18.3613C87.1565 18.2814 87.187 18.2035 87.2195 18.1278C87.4972 17.4596 87.9057 16.954 88.4433 16.611C88.6444 16.4827 88.8622 16.3784 89.0959 16.2982C89.4896 16.1636 89.9306 16.0963 90.4183 16.0963C91.1791 16.0963 91.8091 16.2679 92.3099 16.611C92.8291 16.9359 93.2187 17.4145 93.4786 18.0465C93.4996 18.0975 93.5195 18.1495 93.5389 18.202C93.5694 18.2858 93.5983 18.3717 93.6245 18.4598C93.6639 18.5909 93.698 18.7266 93.7285 18.8668C93.7505 18.9702 93.7694 19.076 93.7862 19.1844H86.9119C86.925 19.112 86.9392 19.0409 86.9549 18.9708Z" fill="#81818B"/>
<path d="M99.8499 27.934V13.0895H103.383V16.8282C103.431 16.6059 103.486 16.3926 103.546 16.1881C103.599 16.0157 103.655 15.8495 103.717 15.6899C104.106 14.6785 104.69 13.9202 105.469 13.4144C106.248 12.8907 107.203 12.629 108.335 12.629H108.529C109.679 12.629 110.634 12.8907 111.395 13.4144C112.174 13.9202 112.758 14.6785 113.147 15.6899L113.178 15.7662L113.204 15.836C113.222 15.7867 113.24 15.7381 113.258 15.6899C113.666 14.6785 114.26 13.9202 115.039 13.4144C115.818 12.8907 116.773 12.629 117.905 12.629H118.099C119.249 12.629 120.213 12.8907 120.992 13.4144C121.79 13.9202 122.393 14.6785 122.8 15.6899C123.208 16.7012 123.413 17.9654 123.413 19.4823V27.934H118.961V19.2384C118.961 18.4258 118.739 17.7667 118.294 17.2611C117.867 16.7553 117.255 16.5025 116.458 16.5025C115.66 16.5025 115.03 16.7645 114.566 17.2881C114.103 17.7937 113.871 18.4709 113.871 19.3198V27.934H109.392V19.2384C109.392 18.4258 109.169 17.7667 108.724 17.2611C108.298 16.7553 107.694 16.5025 106.916 16.5025C106.1 16.5025 105.46 16.7645 104.996 17.2881C104.533 17.7937 104.301 18.4709 104.301 19.3198V27.934H99.8499Z" fill="#81818B"/>
<path fill-rule="evenodd" clip-rule="evenodd" d="M135.303 25.0736V27.9341H138.835V18.8322C138.835 17.4597 138.557 16.3402 138.001 15.4732C137.444 14.5883 136.629 13.9293 135.553 13.4959C134.496 13.0625 133.188 12.8457 131.63 12.8457C131.293 12.8457 130.94 12.8492 130.573 12.8564C130.356 12.8608 130.133 12.8662 129.906 12.8728C129.293 12.8909 128.7 12.9179 128.125 12.9541L127.686 12.9829C127.46 12.9982 127.249 13.0132 127.049 13.0285C126.9 13.0398 126.757 13.0512 126.623 13.0625V16.7195C127.198 16.6832 127.838 16.6471 128.543 16.6111C128.74 16.601 128.935 16.5916 129.129 16.5829C129.409 16.5703 129.685 16.5593 129.959 16.5498C130.175 16.5421 130.389 16.5353 130.601 16.5297C131.269 16.5116 131.807 16.5026 132.215 16.5026C133.03 16.5026 133.624 16.6922 133.995 17.0715C134.366 17.4507 134.551 18.0196 134.551 18.7782V18.8322H131.797C130.444 18.8322 129.247 19.0038 128.208 19.347C127.17 19.672 126.363 20.1866 125.789 20.8909C125.213 21.5773 124.926 22.4621 124.926 23.5456C124.926 24.5389 125.158 25.3967 125.621 26.1193C126.085 26.8231 126.725 27.3649 127.541 27.7439C128.376 28.1234 129.34 28.3131 130.434 28.3131C131.491 28.3131 132.382 28.1234 133.105 27.7439C133.847 27.3649 134.422 26.8231 134.83 26.1193C134.902 26.0003 134.968 25.8772 135.031 25.7493C135.119 25.5685 135.198 25.3783 135.267 25.1787L135.303 25.0736ZM134.551 22.4351V21.2431H131.769C130.99 21.2431 130.388 21.4327 129.961 21.812C129.553 22.1732 129.349 22.6698 129.349 23.3018C129.349 23.5993 129.4 23.8696 129.501 24.1134C129.604 24.3577 129.757 24.5747 129.961 24.7644C130.388 25.126 130.99 25.3063 131.769 25.3063C131.917 25.3063 132.061 25.2991 132.199 25.2853C132.312 25.2736 132.422 25.2571 132.529 25.236C132.732 25.1958 132.925 25.1376 133.105 25.0624C133.513 24.8821 133.847 24.5841 134.106 24.1684C134.366 23.7532 134.515 23.1751 134.551 22.4351Z" fill="#81818B"/>
<path d="M141.499 27.9341V13.0895H145.033V17.9892C145.202 16.5905 145.628 15.4627 146.312 14.6065C147.24 13.4689 148.574 12.9 150.318 12.9H150.903V16.6381H149.79C148.566 16.6381 147.62 16.9631 146.952 17.6132C146.284 18.2453 145.95 19.1664 145.95 20.3761V27.9341H141.499Z" fill="#81818B"/>
<path d="M156.547 20.9993H158.021L162.834 27.9341H167.841L161.739 19.4174L166.756 13.0896H162.083L156.547 20.1478V8.15955H152.096V27.9341H156.547V20.9993Z" fill="#81818B"/>
</g>
<defs>
<filter id="filter0_d_44_6" x="0.173889" y="0.987793" width="171.667" height="41.5763" filterUnits="userSpaceOnUse" color-interpolation-filters="sRGB">
<feFlood flood-opacity="0" result="BackgroundImageFix"/>
<feColorMatrix in="SourceAlpha" type="matrix" values="0 0 0 0 0 0 0 0 0 0 0 0 0 0 0 0 0 0 127 0" result="hardAlpha"/>
<feOffset dy="4"/>
<feGaussianBlur stdDeviation="2"/>
<feComposite in2="hardAlpha" operator="out"/>
<feColorMatrix type="matrix" values="0 0 0 0 0 0 0 0 0 0 0 0 0 0 0 0 0 0 0.25 0"/>
<feBlend mode="normal" in2="BackgroundImageFix" result="effect1_dropShadow_44_6"/>
<feBlend mode="normal" in="SourceGraphic" in2="effect1_dropShadow_44_6" result="shape"/>
</filter>
</defs>
</svg>
